<svg width="100" height="27" viewBox="0 0 100 27" fill="none" xmlns="http://www.w3.org/2000/svg">
<g clip-path="url(#clip0_1088_348)">
<path d="M10.5943 5.91246L1.39221 8.3781C0.571132 8.59786 0 9.34287 0 10.1929V20.7088C0 21.3801 0.358618 21.9995 0.939409 22.3352L8.68048 26.804C9.36028 27.1965 10.2176 26.7497 10.2864 25.9685L11.9418 7.04264C12.0071 6.30005 11.314 5.71926 10.5943 5.91246Z" fill="#FF6D00"/>
<path d="M14.5976 3.09679L12.6294 25.5907C12.5533 26.4564 13.4831 27.0481 14.2353 26.6134L21.6492 22.3329C22.2299 21.9973 22.5886 21.3778 22.5886 20.7065V1.07428C22.5886 0.367914 21.9196 -0.145259 21.2374 0.0370683L15.9825 1.44497C15.2194 1.64904 14.6664 2.30952 14.5976 3.09558V3.09679Z" fill="#FF5722"/>
<path d="M46.8365 1.41797V21.2699H43.5547V19.6555C42.6817 20.8992 41.1458 21.5875 39.3466 21.5875C35.694 21.5875 32.9941 18.6763 32.9941 14.7315C32.9941 10.7867 35.694 7.8755 39.3466 7.8755C41.0141 7.8755 42.311 8.40437 43.2649 9.43676V2.53488L46.8378 1.41797H46.8365ZM40.0071 11.1055C38.1017 11.1055 36.619 12.5617 36.619 14.7049C36.619 16.8482 38.0752 18.331 40.0071 18.331C41.8074 18.331 43.3156 17.0873 43.3156 14.7315C43.3156 12.3757 41.8062 11.1055 40.0071 11.1055Z" fill="#171944"/>
<path d="M52.2955 15.9242C52.7193 17.5917 54.0693 18.5178 55.9747 18.5178C57.2715 18.5178 58.4898 18.0675 59.6272 17.1945L61.11 19.6299C59.5488 20.9267 57.8016 21.5884 55.8684 21.5884C51.8186 21.6681 48.6164 18.5178 48.6948 14.7324C48.6151 10.947 51.7654 7.79795 55.5508 7.87644C59.1769 7.87644 61.7186 10.5498 61.7186 13.9645C61.7186 14.5996 61.6389 15.2613 61.4807 15.923H52.2955V15.9242ZM58.2507 13.4091C58.2242 11.7947 56.9805 10.7623 55.418 10.7623C53.8556 10.7623 52.6916 11.7947 52.2943 13.4091H58.2495H58.2507Z" fill="#171944"/>
<path d="M76.0628 8.16797L69.5775 21.5878H68.3857L61.9004 8.16797H65.6592L68.9677 15.5794L72.2762 8.16797H76.0616H76.0628Z" fill="#171944"/>
<path d="M83.166 7.87642C87.0045 7.8233 90.2864 10.9736 90.2068 14.7059C90.2864 18.4381 86.978 21.6403 83.1394 21.5619C79.3009 21.6415 76.0721 18.4381 76.1518 14.7059C76.0721 10.9736 79.3287 7.79794 83.166 7.87642ZM83.166 11.1318C81.1809 11.1318 79.7779 12.6399 79.7779 14.7312C79.7779 16.8225 81.1809 18.2775 83.166 18.2775C85.1511 18.2775 86.5542 16.7694 86.5542 14.7312C86.5542 12.693 85.098 11.1318 83.166 11.1318Z" fill="#171944"/>
<path d="M100.003 21.2682C99.1568 21.4795 98.3357 21.5858 97.5412 21.5858C94.2327 21.5858 92.3008 19.9448 92.3008 16.6629V5.13644L95.8737 4.01953V8.16597H99.5794V11.1834H95.8737V16.3454C95.8737 17.8281 96.6151 18.3836 98.3091 18.3836C98.5204 18.3836 99.0771 18.357 100.003 18.2773V21.2682Z" fill="#171944"/>
<path d="M79.1836 3.41016H87.1746V6.2151H79.1836V3.41016Z" fill="#171944"/>
</g>
<defs>
<clipPath id="clip0_1088_348">
<rect width="100" height="26.947" fill="white"/>
</clipPath>
</defs>
</svg>
